<svg width="128" height="128" viewBox="0 0 128 128" fill="none" xmlns="http://www.w3.org/2000/svg">
<path d="M58.3333 8.33331H25C20.4167 8.33331 16.7083 12.0833 16.7083 16.6666L16.6667 83.3333C16.6667 87.9167 20.375 91.6667 24.9583 91.6667H75C79.5833 91.6667 83.3333 87.9167 83.3333 83.3333V33.3333L58.3333 8.33331ZM66.6667 75H33.3333V66.6667H66.6667V75ZM66.6667 58.3333H33.3333V50H66.6667V58.3333ZM54.1667 37.5V14.5833L77.0833 37.5H54.1667Z" fill="#4F4F4F"/>
<path fill-rule="evenodd" clip-rule="evenodd" d="M74.9819 80.3975C76.2198 90.8728 84.2296 98.9565 93.9261 98.9565C103.623 98.9565 111.632 90.8728 112.87 80.3975H74.9819Z" fill="#B1A9A9"/>
<path fill-rule="evenodd" clip-rule="evenodd" d="M91.1304 64.1677C81.1069 65.3492 73.3913 72.6304 73.3913 81.4362H114.609C114.609 72.6304 106.893 65.3492 96.8696 64.1677V69.6045H91.1304V64.1677Z" fill="#FED557"/>
<rect x="92.1739" y="64.0001" width="3.65217" height="9.96353" fill="#D37B2C"/>
<rect x="72.3478" y="80.1907" width="43.3043" height="3.1136" rx="1.5568" fill="#D37B2C"/>
<path d="M85.1304 98.9565L80.4348 100.135L74.9565 101.903L70.7826 104.849L67.6522 108.09L65.5652 112.509L64 118.107V124H124V118.107L122.696 113.099L121.13 108.09L118.522 104.849L114.087 101.903L108.609 100.135L104.174 98.9565L103.13 101.608L101.826 104.26L100.261 105.733L98.6957 106.617L94.7826 107.206L91.3913 106.617L89.3043 105.144L87.4783 103.376L86.1739 101.019L85.1304 98.9565Z" fill="#D37B2C"/>
<path d="M79.4477 100.17L82.2327 99.4783V113.787H79.4477V100.17Z" fill="#FED557"/>
<path d="M107.297 99.706L110.082 100.454V113.787H107.297V99.706Z" fill="#FED557"/>
<rect x="112.867" y="114.922" width="2.78496" height="9.07796" fill="#FED557"/>
<rect x="74.4348" y="114.355" width="2.78496" height="9.64533" fill="#FED557"/>
<path d="M114.234 113.22C115.017 113.22 115.652 113.855 115.652 114.638V114.638C115.652 115.422 115.017 116.057 114.234 116.057L75.8532 116.057C75.0698 116.057 74.4348 115.422 74.4348 114.638V114.638C74.4348 113.855 75.0698 113.22 75.8532 113.22L114.234 113.22Z" fill="#FED557"/>
</svg>
