<svg width="128" height="128" viewBox="0 0 128 128" fill="none" xmlns="http://www.w3.org/2000/svg">
<rect x="17" y="8" width="93" height="111" rx="5" fill="#FAEFDE" stroke="#8D6C9F" stroke-width="4"/>
<g style="mix-blend-mode:multiply">
<rect x="17" y="92" width="93" height="27" rx="5" fill="#EFD8BE"/>
</g>
<rect x="36" y="33" width="25" height="4" rx="2" fill="#8D6C9F"/>
<rect x="36" y="42" width="45" height="4" rx="2" fill="#8D6C9F"/>
<rect x="36" y="53" width="48" height="4" rx="2" fill="#8D6C9F"/>
<rect x="36" y="61" width="28" height="4" rx="2" fill="#8D6C9F"/>
<rect x="67" y="33" width="21" height="4" rx="2" fill="#8D6C9F"/>
<rect x="23" y="86" width="10" height="4" rx="2" transform="rotate(90 23 86)" fill="#8D6C9F"/>
<rect x="37" y="86" width="10" height="4" rx="2" transform="rotate(90 37 86)" fill="#8D6C9F"/>
<rect x="65" y="86" width="10" height="4" rx="2" transform="rotate(90 65 86)" fill="#8D6C9F"/>
<rect x="79" y="86" width="10" height="4" rx="2" transform="rotate(90 79 86)" fill="#8D6C9F"/>
<rect x="93" y="86" width="10" height="4" rx="2" transform="rotate(90 93 86)" fill="#8D6C9F"/>
<rect x="107" y="86" width="10" height="4" rx="2" transform="rotate(90 107 86)" fill="#8D6C9F"/>
<rect x="51" y="86" width="10" height="4" rx="2" transform="rotate(90 51 86)" fill="#8D6C9F"/>
<path fill-rule="evenodd" clip-rule="evenodd" d="M68.3507 91.9501C69.0177 100.022 75.2963 106.35 82.9433 106.35C90.5903 106.35 96.869 100.022 97.5359 91.9501H68.3507Z" fill="#B1A9A9"/>
<path fill-rule="evenodd" clip-rule="evenodd" d="M80.8 77.1508C73.1153 78.2126 67.2 84.7567 67.2 92.671L67.2 92.6712H98.8V92.671C98.8 84.7567 92.8847 78.2126 85.2 77.1508V82.0373H80.8V77.1508Z" fill="#FED557"/>
<rect x="81.6" y="77" width="2.8" height="8.95485" fill="#D37B2C"/>
<rect x="66.4" y="91.5516" width="33.2" height="2.79839" rx="1.3992" fill="#D37B2C"/>
<path d="M76.2 106.9L72.6 107.766L68.4 109.065L65.2 111.229L62.8 113.611L61.2 116.858L60 120.971V125.3H106V120.971L105 117.291L103.8 113.611L101.8 111.229L98.4 109.065L94.2 107.766L90.8 106.9L90 108.848L89 110.796L87.8 111.879L86.6 112.528L83.6 112.961L81 112.528L79.4 111.446L78 110.147L77 108.415L76.2 106.9Z" fill="#D37B2C"/>
<path d="M71.8433 107.281L73.9784 106.75V117.72H71.8433V107.281Z" fill="#FED557"/>
<path d="M93.1946 106.925L95.3297 107.498V117.72H93.1946V106.925Z" fill="#FED557"/>
<rect x="97.4649" y="118.59" width="2.13513" height="6.95977" fill="#FED557"/>
<rect x="68" y="118.155" width="2.13513" height="7.39475" fill="#FED557"/>
<path d="M98.5125 117.285C99.1131 117.285 99.6 117.772 99.6 118.373V118.373C99.6 118.973 99.1131 119.46 98.5125 119.46L69.0875 119.46C68.4869 119.46 68 118.973 68 118.373V118.373C68 117.772 68.4869 117.285 69.0875 117.285L98.5125 117.285Z" fill="#FED557"/>
</svg>
