<svg width="128" height="128" viewBox="0 0 128 128" fill="none" xmlns="http://www.w3.org/2000/svg">
<rect x="17" y="8" width="93" height="111" rx="5" fill="#FAEFDE" stroke="#8D6C9F" stroke-width="4"/>
<g style="mix-blend-mode:multiply">
<rect x="17" y="92" width="93" height="27" rx="5" fill="#EFD8BE"/>
</g>
<rect x="36" y="33" width="25" height="4" rx="2" fill="#8D6C9F"/>
<rect x="36" y="42" width="45" height="4" rx="2" fill="#8D6C9F"/>
<rect x="36" y="53" width="48" height="4" rx="2" fill="#8D6C9F"/>
<rect x="36" y="61" width="28" height="4" rx="2" fill="#8D6C9F"/>
<rect x="67" y="33" width="21" height="4" rx="2" fill="#8D6C9F"/>
<rect x="23" y="86" width="10" height="4" rx="2" transform="rotate(90 23 86)" fill="#8D6C9F"/>
<rect x="37" y="86" width="10" height="4" rx="2" transform="rotate(90 37 86)" fill="#8D6C9F"/>
<rect x="65" y="86" width="10" height="4" rx="2" transform="rotate(90 65 86)" fill="#8D6C9F"/>
<rect x="79" y="86" width="10" height="4" rx="2" transform="rotate(90 79 86)" fill="#8D6C9F"/>
<rect x="93" y="86" width="10" height="4" rx="2" transform="rotate(90 93 86)" fill="#8D6C9F"/>
<rect x="107" y="86" width="10" height="4" rx="2" transform="rotate(90 107 86)" fill="#8D6C9F"/>
<rect x="51" y="86" width="10" height="4" rx="2" transform="rotate(90 51 86)" fill="#8D6C9F"/>
</svg>
