<svg width="128" height="128" viewBox="0 0 128 128" fill="none" xmlns="http://www.w3.org/2000/svg">
<g id="Special_Permit_Onsite">
<g id="Description">
<path id="Vector" d="M58.3333 8.33334H25C20.4167 8.33334 16.7083 12.0833 16.7083 16.6667L16.6667 83.3333C16.6667 87.9167 20.375 91.6667 24.9583 91.6667H75C79.5833 91.6667 83.3333 87.9167 83.3333 83.3333V33.3333L58.3333 8.33334ZM66.6666 75H33.3333V66.6667H66.6666V75ZM66.6666 58.3333H33.3333V50H66.6666V58.3333ZM54.1667 37.5V14.5833L77.0833 37.5H54.1667Z" fill="#4F4F4F"/>
</g>
<g id="Medal">
<path id="Medal_Bottom" d="M80.1923 89.0685H103.222L107.828 127L91.7072 115.146L75.5863 127L80.1923 89.0685Z" fill="#2F80ED"/>
<g id="Medal_2">
<path id="Vector_2" d="M75.1121 63.1122H108.302V96.3022H75.1121V63.1122Z" fill="#FED557"/>
<path id="Vector_3" d="M91.6835 56C78.5971 56 68 66.6208 68 79.7072C68 92.7936 78.5971 103.414 91.6835 103.414C104.794 103.414 115.414 92.7936 115.414 79.7072C115.414 66.6208 104.794 56 91.6835 56ZM101.735 93.9315L91.7072 87.8862L81.679 93.9315L84.3343 82.5283L75.4915 74.8709L87.1554 73.8752L91.7072 63.1122L96.259 73.8515L107.923 74.8472L99.0801 82.5046L101.735 93.9315Z" fill="#EB5757"/>
</g>
</g>
</g>
</svg>
