<svg width="128" height="128" viewBox="0 0 128 128" fill="none" xmlns="http://www.w3.org/2000/svg">
<g id="Temporary_Permit_Onsite">
<g id="Description">
<path id="Vector" d="M58.3333 8.33334H25C20.4167 8.33334 16.7083 12.0833 16.7083 16.6667L16.6667 83.3334C16.6667 87.9167 20.375 91.6667 24.9583 91.6667H75C79.5833 91.6667 83.3333 87.9167 83.3333 83.3334V33.3333L58.3333 8.33334ZM66.6667 75H33.3333V66.6667H66.6667V75ZM66.6667 58.3333H33.3333V50H66.6667V58.3333ZM54.1667 37.5V14.5833L77.0833 37.5H54.1667Z" fill="#4F4F4F"/>
</g>
<g id="Clock">
<g id="Clock_2">
<circle id="Ellipse 2" cx="91.5" cy="91.5" r="34.5" fill="#FEFFFD"/>
<circle id="Ellipse 1" cx="91.5" cy="91.5001" r="30" fill="#D37B2C"/>
</g>
<g id="clock-regular 1">
<path id="Vector_2" d="M91.5 62.4376C75.4453 62.4376 62.4375 75.4454 62.4375 91.5001C62.4375 107.555 75.4453 120.563 91.5 120.563C107.555 120.563 120.563 107.555 120.563 91.5001C120.563 75.4454 107.555 62.4376 91.5 62.4376ZM91.5 114.938C78.5508 114.938 68.0625 104.449 68.0625 91.5001C68.0625 78.5509 78.5508 68.0626 91.5 68.0626C104.449 68.0626 114.938 78.5509 114.938 91.5001C114.938 104.449 104.449 114.938 91.5 114.938ZM98.7422 102.703L88.793 95.4728C88.4297 95.2032 88.2188 94.7814 88.2188 94.3361V75.0939C88.2188 74.3204 88.8516 73.6876 89.625 73.6876H93.375C94.1485 73.6876 94.7813 74.3204 94.7813 75.0939V91.6993L102.609 97.3947C103.242 97.8517 103.371 98.7306 102.914 99.3634L100.711 102.399C100.254 103.02 99.375 103.16 98.7422 102.703Z" fill="white"/>
</g>
</g>
</g>
</svg>
